<?xml version="1.0" encoding="utf-8"?>
<svg xmlns="http://www.w3.org/2000/svg" style="margin: auto; background: none; display: block; shape-rendering: auto; animation-play-state: running; animation-delay: 0s;" width="275" height="250" preserveAspectRatio="xMidYMid">
<style type="text/css" style="animation-play-state: running; animation-delay: 0s;">
  text {
    text-anchor: middle; font-size: 76px; opacity: 0;
  }
</style>
<g style="transform-origin: 137.5px 125px; transform: scale(1); animation-play-state: running; animation-delay: 0s;">
<g transform="translate(137.5,125)" style="animation-play-state: running; animation-delay: 0s;">
  <g transform="translate(0,0)" style="animation-play-state: running; animation-delay: 0s;"><g class="path" style="transform: scale(0.91); transform-origin: -105.605px -8.03562px; animation: 3.57143s linear -2.0625s infinite normal forwards running breath-11175e7e-7833-49a5-9634-faab43c2a6e4;"><path d="M5.47 0L5.47-56.92L11.55-57.61L11.55 0L5.47 0" fill="#ffffff" stroke="none" stroke-width="none" transform="translate(-114.114990234375,20.769378941059113)" style="fill: rgb(255, 255, 255); animation-play-state: running; animation-delay: 0s;"></path></g><g class="path" style="transform: scale(0.91); transform-origin: -75.28px 1.76938px; animation: 3.57143s linear -1.76786s infinite normal forwards running breath-11175e7e-7833-49a5-9634-faab43c2a6e4;"><path d="M26.83-18.92L26.83-18.92L26.83-18.92Q26.83-11.55 30.13-7.94L30.13-7.94L30.13-7.94Q33.44-4.33 39.06-4.33L39.06-4.33L39.06-4.33Q44.61-4.33 47.73-7.90L47.73-7.90L47.73-7.90Q50.84-11.48 50.84-18.62L50.84-18.62L50.84-18.62Q50.84-26.22 47.54-29.94L47.54-29.94L47.54-29.94Q44.23-33.67 38.53-33.67L38.53-33.67L38.53-33.67Q32.83-33.67 29.83-29.98L29.83-29.98L29.83-29.98Q26.83-26.30 26.83-18.92zM20.37-19L20.37-19L20.37-19Q20.37-24.78 22.19-28.61L22.19-28.61L22.19-28.61Q24.02-32.45 26.83-34.77L26.83-34.77L26.83-34.77Q29.64-37.09 32.87-38.04L32.87-38.04L32.87-38.04Q36.10-38.99 38.99-38.99L38.99-38.99L38.99-38.99Q41.72-38.99 44.95-38.11L44.95-38.11L44.95-38.11Q48.18-37.24 50.92-35.00L50.92-35.00L50.92-35.00Q53.66-32.76 55.48-28.99L55.48-28.99L55.48-28.99Q57.30-25.23 57.30-19.46L57.30-19.46L57.30-19.46Q57.30-13.45 55.44-9.50L55.44-9.50L55.44-9.50Q53.58-5.55 50.77-3.23L50.77-3.23L50.77-3.23Q47.96-0.91 44.69 0.04L44.69 0.04L44.69 0.04Q41.42 0.99 38.61 0.99L38.61 0.99L38.61 0.99Q35.72 0.99 32.53 0.08L32.53 0.08L32.53 0.08Q29.34-0.84 26.64-3.08L26.64-3.08L26.64-3.08Q23.94-5.32 22.15-9.20L22.15-9.20L22.15-9.20Q20.37-13.07 20.37-19" fill="#ffffff" stroke="none" stroke-width="none" transform="translate(-114.114990234375,20.769378941059113)" style="fill: rgb(255, 255, 255); animation-play-state: running; animation-delay: 0s;"></path></g><g class="path" style="transform: scale(0.91); transform-origin: -35.68px 1.76938px; animation: 3.57143s linear -1.47321s infinite normal forwards running breath-11175e7e-7833-49a5-9634-faab43c2a6e4;"><path d="M87.40-8.89L87.40-17.56L87.40-17.56Q85.88-17.48 84.51-17.40L84.51-17.40L84.51-17.40Q83.14-17.33 81.81-17.21L81.81-17.21L81.81-17.21Q80.48-17.10 79.42-16.95L79.42-16.95L79.42-16.95Q73.95-16.26 71.67-14.55L71.67-14.55L71.67-14.55Q69.39-12.84 69.39-9.65L69.39-9.65L69.39-9.65Q69.39-6.99 71.02-5.66L71.02-5.66L71.02-5.66Q72.66-4.33 75.32-4.33L75.32-4.33L75.32-4.33Q78.96-4.33 81.81-5.59L81.81-5.59L81.81-5.59Q84.66-6.84 87.40-8.89L87.40-8.89zM88.08 0.61L87.32-3.57L87.32-3.57Q83.75-1.52 80.67-0.27L80.67-0.27L80.67-0.27Q77.60 0.99 74.02 0.99L74.02 0.99L74.02 0.99Q68.93 0.99 65.93-1.48L65.93-1.48L65.93-1.48Q62.93-3.95 62.93-9.65L62.93-9.65L62.93-9.65Q62.93-12.62 64.45-14.82L64.45-14.82L64.45-14.82Q65.97-17.02 68.44-18.51L68.44-18.51L68.44-18.51Q70.91-19.99 74.02-20.82L74.02-20.82L74.02-20.82Q77.14-21.66 80.41-21.89L80.41-21.89L80.41-21.89Q81.78-22.04 83.98-22.15L83.98-22.15L83.98-22.15Q86.18-22.27 87.40-22.34L87.40-22.34L87.40-22.34Q87.40-25.00 87.25-27.09L87.25-27.09L87.25-27.09Q87.10-29.18 86.34-30.67L86.34-30.67L86.34-30.67Q85.58-32.15 84.09-32.91L84.09-32.91L84.09-32.91Q82.61-33.67 79.88-33.67L79.88-33.67L79.88-33.67Q77.67-33.67 75.62-33.40L75.62-33.40L75.62-33.40Q73.57-33.14 71.97-32.83L71.97-32.83L71.97-32.83Q70.07-32.45 68.48-32.00L68.48-32.00L67.26-37.24L67.26-37.24Q69.16-37.70 71.36-38.08L71.36-38.08L71.36-38.08Q73.26-38.46 75.77-38.72L75.77-38.72L75.77-38.72Q78.28-38.99 81.17-38.99L81.17-38.99L81.17-38.99Q85.04-38.99 87.44-37.85L87.44-37.85L87.44-37.85Q89.83-36.71 91.16-34.77L91.16-34.77L91.16-34.77Q92.49-32.83 92.99-30.36L92.99-30.36L92.99-30.36Q93.48-27.89 93.48-25.16L93.48-25.16L93.48-6.92L93.48-6.92Q93.48-5.85 93.52-4.67L93.52-4.67L93.52-4.67Q93.56-3.50 93.67-2.36L93.67-2.36L93.67-2.36Q93.78-1.22 93.94 0L93.94 0L88.08 0.61" fill="#ffffff" stroke="none" stroke-width="none" transform="translate(-114.114990234375,20.769378941059113)" style="fill: rgb(255, 255, 255); animation-play-state: running; animation-delay: 0s;"></path></g><g class="path" style="transform: scale(0.91); transform-origin: 4.25501px -7.54062px; animation: 3.57143s linear -1.17857s infinite normal forwards running breath-11175e7e-7833-49a5-9634-faab43c2a6e4;"><path d="M128.06-8.36L128.06-32.53L128.06-32.53Q125.32-33.29 123.80-33.48L123.80-33.48L123.80-33.48Q122.28-33.67 120.69-33.67L120.69-33.67L120.69-33.67Q117.50-33.67 115.22-32.53L115.22-32.53L115.22-32.53Q112.94-31.39 111.45-29.37L111.45-29.37L111.45-29.37Q109.97-27.36 109.29-24.74L109.29-24.74L109.29-24.74Q108.60-22.12 108.60-19.15L108.60-19.15L108.60-19.15Q108.60-16.49 109.17-13.83L109.17-13.83L109.17-13.83Q109.74-11.17 110.96-9.04L110.96-9.04L110.96-9.04Q112.18-6.92 113.92-5.62L113.92-5.62L113.92-5.62Q115.67-4.33 118.10-4.33L118.10-4.33L118.10-4.33Q119.78-4.33 121.56-4.94L121.56-4.94L121.56-4.94Q123.35-5.55 124.87-6.35L124.87-6.35L124.87-6.35Q126.39-7.14 128.06-8.36L128.06-8.36zM128.74 0.61L128.14-3.04L128.14-3.04Q126.39-1.82 124.75-1.03L124.75-1.03L124.75-1.03Q123.12-0.23 121.18 0.38L121.18 0.38L121.18 0.38Q119.24 0.99 117.42 0.99L117.42 0.99L117.42 0.99Q110.28 0.99 106.21-4.07L106.21-4.07L106.21-4.07Q102.14-9.12 102.14-18.85L102.14-18.85L102.14-18.85Q102.14-24.62 104.01-28.50L104.01-28.50L104.01-28.50Q105.87-32.38 108.68-34.69L108.68-34.69L108.68-34.69Q111.49-37.01 114.72-38L114.72-38L114.72-38Q117.95-38.99 120.69-38.99L120.69-38.99L120.69-38.99Q122.06-38.99 123.58-38.80L123.58-38.80L123.58-38.80Q125.10-38.61 128.06-37.85L128.06-37.85L128.06-56.92L134.14-57.61L134.14-6.92L134.14-6.92Q134.14-5.85 134.18-4.67L134.18-4.67L134.18-4.67Q134.22-3.50 134.33-2.36L134.33-2.36L134.33-2.36Q134.44-1.22 134.60 0L134.60 0L128.74 0.61" fill="#ffffff" stroke="none" stroke-width="none" transform="translate(-114.114990234375,20.769378941059113)" style="fill: rgb(255, 255, 255); animation-play-state: running; animation-delay: 0s;"></path></g><g class="path" style="transform: scale(0.91); transform-origin: 34.085px 1.27438px; animation: 3.57143s linear -0.883929s infinite normal forwards running breath-11175e7e-7833-49a5-9634-faab43c2a6e4;"><path d="M145.16 0L145.16-38.30L151.24-38.99L151.24 0L145.16 0" fill="#ffffff" stroke="none" stroke-width="none" transform="translate(-114.114990234375,20.769378941059113)" style="fill: rgb(255, 255, 255); animation-play-state: running; animation-delay: 0s;"></path></g><g class="path" style="transform: scale(0.91); transform-origin: 34.275px -28.4056px; animation: 3.57143s linear -0.589286s infinite normal forwards running breath-11175e7e-7833-49a5-9634-faab43c2a6e4;"><path d="M144.17-49.17L144.17-49.17L144.17-49.17Q144.17-50.92 145.35-52.10L145.35-52.10L145.35-52.10Q146.53-53.28 148.28-53.28L148.28-53.28L148.28-53.28Q150.10-53.28 151.35-52.10L151.35-52.10L151.35-52.10Q152.61-50.92 152.61-49.17L152.61-49.17L152.61-49.17Q152.61-47.42 151.35-46.25L151.35-46.25L151.35-46.25Q150.10-45.07 148.28-45.07L148.28-45.07L148.28-45.07Q146.53-45.07 145.35-46.25L145.35-46.25L145.35-46.25Q144.17-47.42 144.17-49.17" fill="#ffffff" stroke="none" stroke-width="none" transform="translate(-114.114990234375,20.769378941059113)" style="fill: rgb(255, 255, 255); animation-play-state: running; animation-delay: 0s;"></path></g><g class="path" style="transform: scale(0.91); transform-origin: 63.345px 1.27438px; animation: 3.57143s linear -0.294643s infinite normal forwards running breath-11175e7e-7833-49a5-9634-faab43c2a6e4;"><path d="M162.26 0L162.26-30.63L162.26-30.63Q162.34-32.22 161.88-37.54L161.88-37.54L167.50-38.30L168.34-33.44L168.34-33.44Q170.62-34.96 172.86-36.10L172.86-36.10L172.86-36.10Q175.10-37.24 177.46-38.11L177.46-38.11L177.46-38.11Q179.82-38.99 182.02-38.99L182.02-38.99L182.02-38.99Q185.14-38.99 187.23-38.27L187.23-38.27L187.23-38.27Q189.32-37.54 190.61-35.87L190.61-35.87L190.61-35.87Q191.90-34.20 192.47-31.46L192.47-31.46L192.47-31.46Q193.04-28.73 193.04-24.62L193.04-24.62L193.04 0L186.96 0L186.96-23.94L186.96-23.94Q186.96-26.22 186.88-28.01L186.88-28.01L186.88-28.01Q186.81-29.79 186.24-31.05L186.24-31.05L186.24-31.05Q185.67-32.30 184.49-32.98L184.49-32.98L184.49-32.98Q183.31-33.67 181.18-33.67L181.18-33.67L181.18-33.67Q179.21-33.67 177.00-32.79L177.00-32.79L177.00-32.79Q174.80-31.92 172.67-30.78L172.67-30.78L172.67-30.78Q170.54-29.64 168.34-28.12L168.34-28.12L168.34 0L162.26 0" fill="#ffffff" stroke="none" stroke-width="none" transform="translate(-114.114990234375,20.769378941059113)" style="fill: rgb(255, 255, 255); animation-play-state: running; animation-delay: 0s;"></path></g><g class="path" style="transform: scale(0.91); transform-origin: 103.585px 10.5094px; animation: 3.57143s linear 0s infinite normal forwards running breath-11175e7e-7833-49a5-9634-faab43c2a6e4;"><path d="M233.70-37.32L233.70 3.65L233.70 3.65Q233.70 6.46 233.09 9.12L233.09 9.12L233.09 9.12Q232.48 11.78 230.77 13.87L230.77 13.87L230.77 13.87Q229.06 15.96 225.99 17.21L225.99 17.21L225.99 17.21Q222.91 18.47 217.89 18.47L217.89 18.47L217.89 18.47Q214.70 18.39 212.34 18.09L212.34 18.09L212.34 18.09Q209.99 17.78 207.86 17.21L207.86 17.21L207.86 17.21Q205.73 16.64 203.98 15.88L203.98 15.88L205.58 10.56L205.58 10.56Q208.54 11.86 211.62 12.54L211.62 12.54L211.62 12.54Q214.70 13.22 217.13 13.22L217.13 13.22L217.13 13.22Q219.79 13.22 221.77 12.69L221.77 12.69L221.77 12.69Q223.74 12.16 225.07 10.91L225.07 10.91L225.07 10.91Q226.40 9.65 227.05 7.60L227.05 7.60L227.05 7.60Q227.70 5.55 227.70 2.51L227.70 2.51L227.70-3.04L227.70-3.04Q226.10-1.98 224.39-1.10L224.39-1.10L224.39-1.10Q222.68-0.23 220.74 0.38L220.74 0.38L220.74 0.38Q218.80 0.99 216.98 0.99L216.98 0.99L216.98 0.99Q209.91 0.99 205.81-3.99L205.81-3.99L205.81-3.99Q201.70-8.97 201.70-18.85L201.70-18.85L201.70-18.85Q201.70-24.55 203.49-28.39L203.49-28.39L203.49-28.39Q205.28-32.22 208.01-34.58L208.01-34.58L208.01-34.58Q210.75-36.94 214.02-37.96L214.02-37.96L214.02-37.96Q217.28-38.99 220.25-38.99L220.25-38.99L220.25-38.99Q224.12-38.99 227.35-38.34L227.35-38.34L227.35-38.34Q230.58-37.70 233.70-37.32L233.70-37.32zM217.66-4.33L217.66-4.33L217.66-4.33Q219.34-4.33 221.08-4.94L221.08-4.94L221.08-4.94Q222.83-5.55 224.47-6.38L224.47-6.38L224.47-6.38Q226.10-7.22 227.70-8.36L227.70-8.36L227.70-32.60L227.70-32.60Q226.78-32.83 225.57-33.14L225.57-33.14L225.57-33.14Q224.50-33.29 223.14-33.48L223.14-33.48L223.14-33.48Q221.77-33.67 220.25-33.67L220.25-33.67L220.25-33.67Q217.06-33.67 214.78-32.53L214.78-32.53L214.78-32.53Q212.50-31.39 211.01-29.41L211.01-29.41L211.01-29.41Q209.53-27.44 208.85-24.78L208.85-24.78L208.85-24.78Q208.16-22.12 208.16-19.15L208.16-19.15L208.16-19.15Q208.16-16.49 208.73-13.83L208.73-13.83L208.73-13.83Q209.30-11.17 210.52-9.04L210.52-9.04L210.52-9.04Q211.74-6.92 213.48-5.62L213.48-5.62L213.48-5.62Q215.23-4.33 217.66-4.33" fill="#ffffff" stroke="none" stroke-width="none" transform="translate(-114.114990234375,20.769378941059113)" style="fill: rgb(255, 255, 255); animation-play-state: running; animation-delay: 0s;"></path></g></g>
</g>
</g>
<style id="breath-11175e7e-7833-49a5-9634-faab43c2a6e4" data-anikit="">@keyframes breath-11175e7e-7833-49a5-9634-faab43c2a6e4
{
  0% {
    animation-timing-function: cubic-bezier(0.9647,0.2413,-0.0705,0.7911);
    transform: scale(0.9099999999999999);
  }
  51% {
    animation-timing-function: cubic-bezier(0.9226,0.2631,-0.0308,0.7628);
    transform: scale(1.02994);
  }
  100% {
    transform: scale(0.9099999999999999);
  }
}</style></svg>